<svg width="49" height="74" viewBox="0 0 49 74" fill="none" xmlns="http://www.w3.org/2000/svg">
<g clip-path="url(#clip0_116_197)">
<path d="M7.78228 56.2244C7.79115 56.2153 7.80193 56.2083 7.81386 56.2038C7.82578 56.1994 7.83855 56.1977 7.85122 56.1988C7.86388 56.2 7.87614 56.2039 7.88709 56.2104C7.89804 56.2169 7.90741 56.2257 7.91451 56.2363C8.48915 57.1112 8.75048 58.1554 8.65581 59.1982C8.56114 60.241 8.11607 61.2209 7.39329 61.9779C7.38443 61.987 7.37363 61.9941 7.36168 61.9985C7.34974 62.003 7.33695 62.0047 7.32427 62.0035C7.31158 62.0023 7.29931 61.9983 7.28837 61.9918C7.27744 61.9853 7.2681 61.9764 7.26106 61.9657C6.68639 61.0908 6.42504 60.0467 6.51971 59.0039C6.61439 57.9611 7.05947 56.9813 7.78228 56.2244Z" fill="#706CB0"/>
<path d="M1.57997 66.2323C1.57123 66.2219 1.56499 66.2097 1.56171 66.1965C1.55844 66.1833 1.55822 66.1696 1.56107 66.1563C1.56393 66.1431 1.56978 66.1306 1.57819 66.12C1.58659 66.1093 1.59732 66.1008 1.60955 66.0949C2.60061 65.6017 3.72945 65.4595 4.81166 65.6916C5.89388 65.9236 6.86552 66.5161 7.56786 67.3724C7.57626 67.3829 7.58223 67.3951 7.58531 67.4082C7.5884 67.4213 7.58853 67.435 7.5857 67.4481C7.58286 67.4613 7.57714 67.4737 7.56894 67.4843C7.56073 67.495 7.55026 67.5037 7.53828 67.5098C6.54722 68.0027 5.41849 68.1448 4.33638 67.9128C3.25426 67.6808 2.28268 67.0884 1.58026 66.2323H1.57997Z" fill="#706CB0"/>
<path d="M0.470661 52.9398C0.472229 52.9305 0.475865 52.9216 0.4813 52.9139C0.486735 52.9062 0.493831 52.8998 0.502064 52.8952C0.510297 52.8906 0.519458 52.8879 0.52887 52.8873C0.538283 52.8867 0.547707 52.8883 0.556447 52.8918C1.27349 53.1853 1.87 53.7133 2.24861 54.3899C2.62721 55.0664 2.76556 55.8514 2.64106 56.6168C2.63944 56.6261 2.63577 56.6349 2.63032 56.6426C2.62488 56.6503 2.61779 56.6566 2.60957 56.6612C2.60135 56.6658 2.59221 56.6685 2.58282 56.6691C2.57343 56.6697 2.56402 56.6683 2.55527 56.6648C1.83813 56.3715 1.24152 55.8434 0.862895 55.1668C0.484268 54.4903 0.345996 53.7052 0.470661 52.9398Z" fill="#706CB0"/>
<path d="M0.00232995 59.7862C4.7654e-05 59.7761 3.70537e-05 59.7656 0.00229903 59.7555C0.004561 59.7454 0.00903894 59.7359 0.0154089 59.7278C0.0217788 59.7196 0.0298814 59.713 0.0391306 59.7083C0.0483797 59.7037 0.0585441 59.7011 0.0688884 59.7009C0.919094 59.6929 1.7469 59.9736 2.41715 60.4973C3.0874 61.021 3.56049 61.7567 3.75918 62.5843C3.76152 62.5944 3.76157 62.6049 3.75935 62.615C3.75713 62.6251 3.75268 62.6346 3.74633 62.6427C3.73998 62.6509 3.7319 62.6576 3.72266 62.6622C3.71342 62.6668 3.70326 62.6694 3.69292 62.6696C2.84266 62.6777 2.01479 62.397 1.34448 61.8733C0.674166 61.3496 0.20103 60.6138 0.00232995 59.7862Z" fill="#706CB0"/>
<path d="M5.50215 56.5454C5.49418 56.5487 5.48557 56.5503 5.47694 56.5499C5.46831 56.5496 5.45987 56.5473 5.4522 56.5433C5.44453 56.5393 5.43783 56.5337 5.43256 56.5269C5.42728 56.52 5.42358 56.5121 5.42169 56.5037C5.28482 55.802 5.38962 55.0747 5.71897 54.4403C6.04831 53.806 6.58276 53.3022 7.23504 53.0111C7.243 53.0079 7.25157 53.0064 7.26017 53.0068C7.26876 53.0072 7.27717 53.0094 7.2848 53.0134C7.29243 53.0174 7.29911 53.023 7.30436 53.0298C7.30961 53.0366 7.31331 53.0445 7.3152 53.0529C7.45226 53.7545 7.34758 54.4819 7.01827 55.1163C6.68896 55.7506 6.15448 56.2545 5.50215 56.5454Z" fill="#706CB0"/>
<path d="M6.66941 46.6749C6.67914 46.6693 6.69 46.6659 6.7012 46.665C6.7124 46.6641 6.72366 46.6658 6.73415 46.6698C6.74464 46.6738 6.7541 46.6802 6.76183 46.6883C6.76957 46.6965 6.77539 46.7063 6.77886 46.717C7.05772 47.5988 7.02968 48.5493 6.69931 49.4132C6.36894 50.2771 5.75576 51.0033 4.95989 51.4734C4.95014 51.479 4.93926 51.4823 4.92804 51.4832C4.91682 51.4841 4.90554 51.4825 4.89503 51.4785C4.88452 51.4744 4.87503 51.4681 4.86727 51.4599C4.85951 51.4518 4.85366 51.442 4.85015 51.4313C4.57126 50.5494 4.59932 49.5989 4.92975 48.735C5.26018 47.8711 5.87345 47.1448 6.66941 46.6749Z" fill="#706CB0"/>
<path d="M8.92325 61.9095C8.92378 61.8964 8.92719 61.8836 8.93323 61.872C8.93927 61.8604 8.94779 61.8503 8.95819 61.8424C8.96859 61.8344 8.98061 61.8289 8.99339 61.8262C9.00616 61.8234 9.01939 61.8236 9.03211 61.8265C10.0769 62.0901 11.0015 62.7004 11.655 63.5579C12.3085 64.4154 12.6523 65.4694 12.6301 66.5477C12.6296 66.5608 12.6263 66.5736 12.6202 66.5853C12.6142 66.5969 12.6057 66.607 12.5953 66.615C12.5849 66.623 12.5728 66.6285 12.5601 66.6313C12.5473 66.634 12.534 66.6339 12.5213 66.6309C11.4764 66.3674 10.5518 65.757 9.89826 64.8994C9.24476 64.0419 8.90104 62.9878 8.92325 61.9095Z" fill="#706CB0"/>
<path d="M13.1182 73.9758C13.1043 73.9743 13.091 73.9697 13.0792 73.9624C13.0673 73.9551 13.0572 73.9453 13.0497 73.9336C13.0421 73.9219 13.0373 73.9086 13.0355 73.8948C13.0338 73.881 13.0351 73.867 13.0395 73.8537C13.4034 72.7695 14.1238 71.8408 15.083 71.2194C16.0422 70.5979 17.1835 70.3203 18.3207 70.432C18.3345 70.4335 18.3478 70.438 18.3597 70.4453C18.3716 70.4526 18.3816 70.4625 18.3892 70.4742C18.3968 70.4859 18.4016 70.4991 18.4035 70.5129C18.4053 70.5267 18.404 70.5408 18.3997 70.554C18.0356 71.6382 17.3151 72.5668 16.3559 73.1883C15.3967 73.8097 14.2553 74.0873 13.1182 73.9758Z" fill="#706CB0"/>
<path d="M20.5949 73.1418C20.5857 73.1449 20.5759 73.1459 20.5662 73.1448C20.5566 73.1436 20.5473 73.1403 20.5391 73.1351C20.5308 73.1298 20.5239 73.1228 20.5187 73.1146C20.5135 73.1063 20.5103 73.097 20.5092 73.0873C20.4231 72.2897 20.6097 71.4864 21.0386 70.8087C21.4676 70.131 22.1134 69.6189 22.8706 69.3561C22.8799 69.353 22.8897 69.352 22.8993 69.3532C22.909 69.3544 22.9183 69.3577 22.9265 69.3629C22.9347 69.3681 22.9417 69.3751 22.9469 69.3834C22.952 69.3916 22.9553 69.4009 22.9564 69.4106C23.0425 70.2083 22.8559 71.0116 22.4269 71.6893C21.998 72.367 21.3522 72.8791 20.5949 73.1418Z" fill="#706CB0"/>
<path d="M7.99321 71.1613C7.98405 71.157 7.97597 71.1506 7.96956 71.1428C7.96316 71.1349 7.95858 71.1257 7.95617 71.1158C7.95377 71.1059 7.95359 71.0956 7.95564 71.0857C7.9577 71.0758 7.96194 71.0664 7.96807 71.0583C8.47848 70.3973 9.19767 69.9291 10.0082 69.7301C10.8187 69.5311 11.6727 69.6131 12.4307 69.9626C12.44 69.9669 12.4481 69.9732 12.4546 69.9811C12.461 69.9889 12.4657 69.9982 12.4681 70.008C12.4706 70.0179 12.4707 70.0282 12.4687 70.0382C12.4666 70.0482 12.4623 70.0576 12.4562 70.0657C11.9457 70.7266 11.2264 71.1948 10.4159 71.3938C9.60528 71.5928 8.75126 71.5109 7.99321 71.1613Z" fill="#706CB0"/>
<path d="M14.5287 64.6341C14.5255 64.6243 14.5246 64.614 14.526 64.6038C14.5274 64.5936 14.5311 64.5839 14.5368 64.5754C14.5425 64.5668 14.5501 64.5597 14.5589 64.5545C14.5677 64.5493 14.5776 64.5461 14.5879 64.5453C15.4201 64.4781 16.2504 64.6955 16.9432 65.1619C17.636 65.6283 18.1503 66.3161 18.4021 67.113C18.4053 67.1228 18.4062 67.1331 18.4048 67.1433C18.4033 67.1535 18.3997 67.1632 18.394 67.1717C18.3883 67.1803 18.3807 67.1874 18.3719 67.1926C18.3631 67.1978 18.3532 67.201 18.3429 67.2018C17.511 67.269 16.6809 67.0517 15.9883 66.5856C15.2956 66.1195 14.7813 65.4321 14.5293 64.6356L14.5287 64.6341Z" fill="#706CB0"/>
<path d="M19.8444 64.8388C19.8401 64.8331 19.8372 64.8266 19.8358 64.8196C19.8344 64.8127 19.8345 64.8055 19.8363 64.7986C19.838 64.7917 19.8413 64.7853 19.8458 64.7799C19.8503 64.7744 19.856 64.7701 19.8625 64.7671C20.3912 64.5252 20.9863 64.47 21.5505 64.6105C22.1147 64.751 22.6146 65.0789 22.9685 65.5406C22.9728 65.5462 22.9757 65.5528 22.9772 65.5597C22.9786 65.5667 22.9784 65.5739 22.9767 65.5808C22.9749 65.5876 22.9717 65.594 22.9672 65.5995C22.9626 65.6049 22.9569 65.6093 22.9505 65.6123C22.4217 65.8542 21.8266 65.9094 21.2624 65.7689C20.6982 65.6284 20.1983 65.3005 19.8444 64.8388Z" fill="#706CB0"/>
<path d="M25.6664 70.3973C25.6609 70.4016 25.6544 70.4047 25.6475 70.4062C25.6406 70.4078 25.6335 70.4078 25.6266 70.4062C25.6198 70.4046 25.6133 70.4016 25.6078 70.3972C25.6022 70.3929 25.5977 70.3873 25.5945 70.381C25.3425 69.8567 25.2755 69.2624 25.4045 68.6951C25.5334 68.1278 25.8507 67.621 26.3045 67.2575C26.3101 67.2531 26.3165 67.25 26.3234 67.2485C26.3303 67.2469 26.3375 67.2469 26.3444 67.2485C26.3513 67.2501 26.3578 67.2532 26.3633 67.2577C26.3688 67.2621 26.3733 67.2677 26.3764 67.2741C26.6284 67.7983 26.6954 68.3926 26.5664 68.9598C26.4375 69.5271 26.1202 70.0338 25.6664 70.3973Z" fill="#706CB0"/>
<path d="M48.9775 52.129C48.91 50.9024 48.6971 49.8328 48.3267 48.8588C47.9293 47.8066 47.3239 46.8454 46.5468 46.0329C45.7427 45.1806 44.7598 44.5174 43.6688 44.0912C42.5852 43.6666 41.3511 43.451 40.0007 43.451C37.8927 43.451 35.948 43.7619 34.2246 44.3746C32.5432 44.9716 30.5893 45.8537 28.4177 46.9971C26.5449 47.9625 24.9759 48.6809 23.7542 49.1322C22.5689 49.5693 21.2785 49.791 19.9199 49.791C18.8354 49.791 17.9488 49.452 17.2096 48.7546C16.4804 48.0658 16.126 47.2076 16.126 46.1315C16.126 45.4338 16.2296 44.8052 16.434 44.263C16.6285 43.7424 16.9354 43.2713 17.3327 42.883C18.1642 42.0707 19.4013 41.251 21.012 40.4447C22.1139 40.9183 23.2597 41.2823 24.4328 41.5312C25.7066 41.7982 27.0046 41.9319 28.3059 41.9301C29.9873 41.9301 31.6238 41.7358 33.1697 41.3526C36.2543 40.5828 39.0958 39.0483 41.4324 36.8906C42.5558 35.8401 43.5365 34.6464 44.3495 33.3403C45.1565 32.0526 45.7807 30.6588 46.2042 29.199C46.619 27.7407 46.8275 26.2315 46.8237 24.7153C46.8237 23.0979 46.6225 21.5491 46.2252 20.1126C45.8289 18.6759 45.2217 17.3061 44.4234 16.048C43.6421 14.8123 42.694 13.6905 41.6061 12.7145C40.5913 11.8129 39.4674 11.0426 38.2607 10.4216C38.2015 9.16157 38.4482 8.22462 38.992 7.63326C39.2564 7.34542 39.5895 7.13399 40.0104 6.98622C40.4542 6.83046 40.9949 6.75139 41.6158 6.75139C42.2678 6.75069 42.9163 6.84638 43.5404 7.03538C44.1847 7.23431 44.7985 7.52109 45.3647 7.88763C45.6327 8.0739 45.9013 8.16836 46.1634 8.16836C46.548 8.16836 47.0766 7.97469 47.4058 7.05285L47.41 7.04071L47.4138 7.02827L48.7201 2.78122C48.8547 2.37049 48.8813 1.98494 48.7988 1.63491C48.7101 1.26328 48.506 0.940794 48.1883 0.676649C47.644 0.227721 46.9091 0 46.004 0C44.7319 0 43.5191 0.214395 42.3915 0.63756C41.2638 1.06073 40.2024 1.70036 39.2316 2.54136C38.2376 3.40013 37.4765 4.50823 36.9689 5.83103C36.5515 6.9193 36.2974 8.17754 36.211 9.58059C34.2426 8.91786 32.2352 8.58235 30.2317 8.58235C28.5494 8.58235 26.915 8.78045 25.3738 9.17105C22.2969 9.9576 19.4736 11.5225 17.1747 13.7157C16.0607 14.79 15.0931 16.0066 14.2967 17.3341C13.4956 18.6623 12.8817 20.095 12.4724 21.5915C12.0695 23.0721 11.8651 24.6416 11.8651 26.2596C11.8651 27.8256 12.0533 29.318 12.4242 30.6959C12.791 32.0655 13.3592 33.3729 14.1103 34.5752C14.8413 35.7481 15.7307 36.8144 16.7532 37.7437C17.5078 38.4248 18.3288 39.0283 19.204 39.5451C18.3072 40.0349 17.4477 40.5903 16.6325 41.2066C15.6054 41.9917 14.7354 42.8427 14.0467 43.7364C13.3501 44.6402 12.8197 45.6121 12.4701 46.6252C12.1168 47.6595 11.9386 48.7456 11.9426 49.8387C11.9426 52.1088 12.728 54.0212 14.2766 55.5223C15.0611 56.2794 15.9994 56.8584 17.0277 57.2197C18.063 57.5887 19.2419 57.7758 20.5349 57.7758C22.7988 57.7825 25.0364 57.2903 27.0889 56.334C27.2327 56.27 29.3433 55.3295 30.6648 54.6147C32.6307 53.551 34.3527 52.7434 35.7824 52.2142C37.1706 51.6999 38.797 51.4393 40.6163 51.4393C41.2892 51.4393 41.8927 51.532 42.4101 51.7144C42.894 51.8812 43.3355 52.1521 43.7037 52.508C44.3708 53.1571 44.7849 54.0138 44.9701 55.1273C45.1677 56.315 45.128 57.4637 44.8553 58.4489C44.566 59.4945 44.027 60.3468 43.2549 60.9823L43.2529 60.9841L43.2508 60.9858C42.8559 61.315 42.4072 61.5734 41.9244 61.7495L41.9199 61.7513L41.9158 61.7528C41.565 61.8874 41.201 61.9847 40.8299 62.043L40.3323 62.1232V64.2284L40.9994 64.1422C41.5652 64.0707 42.1209 63.9346 42.6559 63.7368C43.3529 63.4891 44.003 63.1251 44.5787 62.6604C45.8912 61.7587 47.0449 60.308 47.8291 58.5721C48.7062 56.6363 49.1023 54.4091 48.9775 52.129ZM18.434 21.2352C18.434 19.5532 18.6381 18.0667 19.0404 16.8173C19.4335 15.5958 20.0278 14.5668 20.807 13.7607C21.5862 12.9547 22.5464 12.3393 23.6607 11.9348C24.7955 11.5223 26.1255 11.3129 27.6137 11.3129C28.711 11.3138 29.7967 11.5376 30.805 11.9709C31.8403 12.4127 32.8588 13.0882 33.8309 13.979C34.8374 14.9077 35.7333 15.9499 36.5006 17.0847C37.2886 18.2444 37.9844 19.5482 38.5689 20.9596C39.1535 22.3709 39.5998 23.8 39.8924 25.1942C40.1817 26.5616 40.329 27.9552 40.332 29.353C40.332 31.0332 40.119 32.5177 39.6995 33.7653C39.2889 34.9853 38.6677 36.0126 37.8534 36.8186C37.039 37.6247 36.0323 38.246 34.8712 38.6528C33.6901 39.0674 32.3095 39.2765 30.768 39.2765C29.6614 39.2792 28.5653 39.0614 27.5436 38.636C26.5168 38.2075 25.5241 37.5524 24.5929 36.6889C23.6215 35.7834 22.7644 34.7625 22.0406 33.6489C21.2907 32.5035 20.6337 31.2073 20.0882 29.7969C19.5473 28.4115 19.1315 26.9804 18.8458 25.5208C18.573 24.1086 18.4351 22.6736 18.434 21.2352Z" fill="url(#paint0_linear_116_197)"/>
<path d="M41.3074 62.181C41.2422 62.1254 41.1658 62.0846 41.0834 62.0615C41.0009 62.0383 40.9145 62.0333 40.8299 62.0469C40.6592 62.0744 40.5078 62.0931 40.367 62.104H40.3605C40.1297 62.1248 39.8904 62.1351 39.6484 62.1351C38.8237 62.1351 37.9197 62.0128 36.9616 61.7718H36.9583C36.7151 61.7125 36.4773 61.6418 36.2253 61.5669C35.8765 61.4638 35.5153 61.3569 35.1053 61.2678H35.0985C34.6107 61.1687 34.1142 61.1191 33.6165 61.1197C33.3902 61.1197 33.1603 61.1298 32.9328 61.1493C31.6733 61.2592 30.3844 61.6527 28.9923 62.3566C27.9658 62.8754 26.9417 63.521 25.6721 64.4502C25.2656 64.7425 24.8654 65.0505 24.4784 65.3484C23.8643 65.8222 23.2839 66.2679 22.6805 66.6579C21.788 67.1909 20.6917 67.5993 19.4221 67.8699C18.4926 68.0655 17.5454 68.1647 16.5956 68.166C16.3554 68.166 16.1128 68.1595 15.875 68.1465H15.8705C14.6857 68.0924 13.5153 67.864 12.3971 67.4684C11.2837 67.078 10.2418 66.5073 9.31319 65.779C8.38086 65.034 7.55861 64.1607 6.87094 63.1849C6.17911 62.2092 5.63329 61.1375 5.25076 60.0039C4.87302 58.8635 4.65966 57.675 4.61713 56.4744C4.57185 55.2746 4.71153 54.075 5.03127 52.9179C5.07238 52.7679 5.05288 52.6077 4.97698 52.4719C4.90109 52.3362 4.77489 52.2358 4.62565 52.1924C4.47642 52.1491 4.31613 52.1662 4.17942 52.2402C4.04271 52.3141 3.94056 52.439 3.89504 52.5877C3.51646 53.8584 3.33586 55.18 3.35962 56.5058C3.38015 57.8308 3.58933 59.1461 3.98083 60.412C3.98083 60.4134 3.98083 60.4146 3.98083 60.4158C4.79098 62.9672 6.32185 65.2291 8.38847 66.9282C10.3956 68.5631 13.0206 69.557 15.7809 69.7266C16.1181 69.75 16.4613 69.7616 16.802 69.7616C17.7909 69.7605 18.7774 69.6649 19.7481 69.4758H19.7507C21.2298 69.1815 22.4722 68.7355 23.5511 68.1107L23.5662 68.1018C24.2622 67.6706 24.9056 67.2004 25.5277 66.7455C25.9105 66.4657 26.3066 66.1764 26.7012 65.9069L26.705 65.9039C27.896 65.0763 28.8846 64.4849 29.8164 64.0425C30.9849 63.4875 32.0827 63.1748 33.0793 63.1135C33.2029 63.1058 33.3275 63.102 33.4493 63.102C33.8595 63.101 34.2684 63.1463 34.6684 63.237C34.9367 63.3022 35.2328 63.3937 35.5464 63.4908C35.8422 63.582 36.1466 63.6765 36.4548 63.7573C37.6381 64.0685 38.7175 64.2202 39.7576 64.2202C40.0188 64.2202 40.2803 64.2101 40.5344 64.1905C40.6723 64.1811 40.8199 64.166 40.9991 64.1429C41.1418 64.1245 41.2728 64.0548 41.3679 63.9467C41.4629 63.8386 41.5153 63.6996 41.5153 63.5556V62.632C41.5154 62.5463 41.4968 62.4615 41.4609 62.3836C41.425 62.3058 41.3726 62.2366 41.3074 62.181Z" fill="#F7A823"/>
</g>
<defs>
<linearGradient id="paint0_linear_116_197" x1="41.4383" y1="60.1152" x2="38.8246" y2="52.1777" gradientUnits="userSpaceOnUse">
<stop stop-color="#F7A823"/>
<stop offset="1" stop-color="#706CB0"/>
</linearGradient>
<clipPath id="clip0_116_197">
<rect width="49" height="74" fill="white"/>
</clipPath>
</defs>
</svg>
