<svg width="24" height="24" viewBox="0 0 24 24" fill="none" xmlns="http://www.w3.org/2000/svg">
<path d="M14.5 13.76V4.5C14.5 3.83696 14.2366 3.20107 13.7678 2.73223C13.2989 2.26339 12.663 2 12 2C11.337 2 10.7011 2.26339 10.2322 2.73223C9.76339 3.20107 9.5 3.83696 9.5 4.5V13.76C8.69728 14.2963 8.08832 15.0766 7.76307 15.9856C7.43782 16.8946 7.41352 17.8841 7.69376 18.8079C7.97399 19.7317 8.54391 20.541 9.31934 21.1161C10.0948 21.6912 11.0346 22.0017 12 22.0017C12.9654 22.0017 13.9052 21.6912 14.6807 21.1161C15.4561 20.541 16.026 19.7317 16.3062 18.8079C16.5865 17.8841 16.5622 16.8946 16.2369 15.9856C15.9117 15.0766 15.3027 14.2963 14.5 13.76Z" stroke="#14181F" stroke-width="2" stroke-linecap="round" stroke-linejoin="round"/>
<path d="M12 10L14 10" stroke="#14181F" stroke-width="2" stroke-linecap="round" stroke-linejoin="round"/>
<path d="M12 7L14 7" stroke="#14181F" stroke-width="2" stroke-linecap="round" stroke-linejoin="round"/>
</svg>
