<svg width="30" height="27" viewBox="0 0 30 27" fill="none" xmlns="http://www.w3.org/2000/svg">
<path d="M16.4797 12.4L24.4926 7.77368C24.9709 7.49754 25.5825 7.66141 25.8586 8.13971L26.2636 8.84108C27.1256 10.3341 27.1576 12.1658 26.3484 13.688L26.0184 14.3089C25.0325 16.1634 22.7803 16.9397 20.8612 16.0863L16.5734 14.1797C15.8266 13.8477 15.7719 12.8086 16.4797 12.4Z" stroke="#14181F" stroke-width="2"/>
<path d="M14.7791 15.3456V24.5981C14.7791 25.1504 14.3313 25.5981 13.7791 25.5981H12.9692C11.2452 25.5981 9.64288 24.71 8.72919 23.2481L8.35651 22.6519C7.24337 20.8708 7.69726 18.5322 9.39582 17.2969L13.1909 14.5369C13.8519 14.0562 14.7791 14.5283 14.7791 15.3456Z" stroke="#14181F" stroke-width="2"/>
<path d="M16.4797 14.3635L24.4926 18.9897C24.9709 19.2659 25.1348 19.8775 24.8586 20.3558L24.4537 21.0571C23.5917 22.5501 22.0214 23.4938 20.2985 23.5541L19.5958 23.5787C17.4968 23.6522 15.6985 22.0898 15.4779 20.0012L14.9852 15.3345C14.8994 14.5217 15.7719 13.9548 16.4797 14.3635Z" stroke="#14181F" stroke-width="2"/>
<path d="M13.0783 14.3637L5.06537 18.99C4.58707 19.2661 3.97548 19.1023 3.69934 18.624L3.2944 17.9226C2.43243 16.4296 2.40037 14.5979 3.20957 13.0756L3.53963 12.4548C4.52547 10.6002 6.7777 9.82402 8.6968 10.6774L12.9846 12.584C13.7314 12.916 13.7861 13.9551 13.0783 14.3637Z" stroke="#14181F" stroke-width="2"/>
<path d="M13.0779 12.3997L5.065 7.77344C4.58671 7.4973 4.42283 6.8857 4.69897 6.40741L5.10391 5.70604C5.96589 4.21305 7.53618 3.26943 9.25907 3.2091L9.96181 3.18449C12.0608 3.111 13.8591 4.67338 14.0797 6.76203L14.5724 11.4287C14.6582 12.2414 13.7857 12.8084 13.0779 12.3997Z" stroke="#14181F" stroke-width="2"/>
<path d="M14.7791 11.4181V2.16553C14.7791 1.61324 15.2268 1.16553 15.7791 1.16553H16.5889C18.3129 1.16553 19.9152 2.05362 20.8289 3.51553L21.2016 4.11181C22.3147 5.89283 21.8608 8.23144 20.1623 9.46675L16.3672 12.2268C15.7063 12.7075 14.7791 12.2354 14.7791 11.4181Z" stroke="#14181F" stroke-width="2"/>
</svg>
